<svg xmlns:dc="http://purl.org/dc/elements/1.1/" 
xmlns:cc="http://creativecommons.org/ns#" 
xmlns:rdf="http://www.w3.org/1999/02/22-rdf-syntax-ns#" 
xmlns:svg="http://www.w3.org/2000/svg" 
xmlns="http://www.w3.org/2000/svg" 
xmlns:sodipodi="http://sodipodi.sourceforge.net/DTD/sodipodi-0.dtd" 
xmlns:inkscape="http://www.inkscape.org/namespaces/inkscape" 
version="1.1" x="0px" y="0px" viewBox="0 0 100 125">
<g transform="translate(0,-952.36218)">
<path style="text-indent:0;text-transform:none;direction:ltr;block-progression:tb;baseline-shift:baseline;color:#000000;enable-background:accumulate;" 
d="m 66.78125,962.38463 a 2.0001999,1.9988579 0 0 0 -1.1875,3.4352 l 2.59375,2.59201 -41.1875,0 a 2.0001999,1.9988579 0 0 0 -0.1875,0 2.0021961,2.0008528 0 1 0 0.1875,3.99731 l 41.1875,0 -2.59375,2.56078 a 2.0001999,1.9988579 0 1 0 2.8125,2.84184 l 6,-5.99597 a 2.0001999,1.9988579 0 0 0 0,-2.84184 l -6,-5.99598 a 2.0001999,1.9988579 0 0 0 -1.625,-0.59335 z M 15.8125,982.40244 A 2.0001998,1.9988578 0 0 0 14,984.4011 l 0,35.9759 a 2.0001998,1.9988578 0 0 0 2,1.9986 l 68,0 a 2.0001998,1.9988578 0 0 0 2,-1.9986 l 0,-35.9759 a 2.0001998,1.9988578 0 0 0 -2,-1.99866 l -68,0 a 2.0001998,1.9988578 0 0 0 -0.1875,0 z m 2.1875,3.99732 20.0625,0 C 33.18463,990.04813 30,995.84909 30,1002.389 c 0,6.5399 3.18463,12.3409 8.0625,15.9893 l -20.0625,0 0,-31.97854 z m 32,0 c 8.860245,0 16,7.13495 16,15.98924 0,8.8543 -7.139755,15.9893 -16,15.9893 -8.860245,0 -16,-7.135 -16,-15.9893 0,-8.85429 7.139755,-15.98924 16,-15.98924 z m 11.9375,0 20.0625,0 0,31.97854 -20.0625,0 C 66.81537,1014.7299 70,1008.9289 70,1002.389 c 0,-6.53991 -3.18463,-12.34087 -8.0625,-15.98924 z m -12.15625,2.96675 A 2.0001999,1.9988579 0 0 0 48,991.39641 l 0,1.09301 c -2.917062,0.49006 -5,3.0763 -5,5.90228 0,3.4064 3.194003,5.996 7,5.996 2.229489,-10e-5 3,0.976 3,1.9986 0,1.2899 -0.503846,1.9987 -2,1.9987 l -6,0 a 2.0001999,1.9988579 0 1 0 0,3.9974 l 3,0 0,0.9993 a 2.0001999,1.9988579 0 1 0 4,0 l 0,-1.093 c 2.915371,-0.4915 5,-3.0774 5,-5.9024 0,-3.4064 -3.193929,-5.996 -7,-5.9959 -2.229563,0 -3,-0.97602 -3,-1.9987 0,-1.28987 0.503846,-1.99865 2,-1.99865 l 6,0 a 2.0001999,1.9988579 0 1 0 0,-3.99731 l -3,0 0,-0.99933 a 2.0001999,1.9988579 0 0 0 -2.21875,-2.0299 z M 32.75,1026.3417 a 2.0001999,1.9988579 0 0 0 -1.15625,0.5934 l -6,5.9959 a 2.0001999,1.9988579 0 0 0 0,2.8419 l 6,5.9959 a 2.0001999,1.9988579 0 1 0 2.8125,-2.8418 l -2.59375,-2.5608 41.1875,0 a 2.0001999,1.9988579 0 1 0 0,-3.9973 l -41.1875,0 2.59375,-2.592 A 2.0001999,1.9988579 0 0 0 32.75,1026.3417 z" 
fill="#eeeeee" fill-opacity="1" stroke="none" marker="none" visibility="visible" display="inline" overflow="visible"/>
</g></svg>